<?xml version="1.0" standalone="no"?>
<!DOCTYPE svg PUBLIC "-//W3C//DTD SVG 20010904//EN"
 "http://www.w3.org/TR/2001/REC-SVG-20010904/DTD/svg10.dtd">
<svg version="1.0" xmlns="http://www.w3.org/2000/svg"
 width="512.000000pt" height="512.000000pt" viewBox="0 0 512.000000 512.000000"
 preserveAspectRatio="xMidYMid meet">
<metadata>
Created by potrace 1.11, written by Peter Selinger 2001-2013
</metadata>
<g transform="translate(0.000000,512.000000) scale(0.100000,-0.100000)"
fill="#000000" stroke="none">
<path d="M0 2560 l0 -2560 2560 0 2560 0 0 2560 0 2560 -2560 0 -2560 0 0
-2560z m4014 914 c81 -21 179 -73 252 -134 33 -28 89 -73 126 -101 183 -138
277 -335 265 -554 -9 -160 -64 -275 -191 -400 -125 -123 -260 -178 -441 -178
-131 0 -250 41 -385 132 -25 17 -49 31 -53 31 -5 0 -41 21 -80 46 -191 124
-297 317 -297 543 0 175 58 308 190 442 95 96 170 140 293 170 92 22 240 24
321 3z m-1084 -184 c0 -13 29 -39 90 -82 49 -35 91 -70 94 -78 14 -46 198
-1121 193 -1133 -4 -10 -50 -21 -145 -36 l-140 -22 -79 56 c-43 30 -87 55 -98
55 -13 1 -79 63 -180 169 -88 92 -161 164 -163 160 -2 -4 17 -121 42 -260 25
-139 44 -255 41 -257 -2 -3 -68 -15 -145 -28 l-142 -24 -81 57 c-58 41 -89 56
-109 55 -15 -1 -28 0 -28 4 0 3 -47 274 -105 601 -58 328 -104 598 -102 600 5
4 185 38 255 48 45 6 57 4 75 -13 12 -10 83 -43 157 -71 l135 -52 79 -85 c43
-47 80 -83 83 -81 2 3 -10 88 -28 191 -18 102 -30 189 -27 192 8 7 254 51 296
53 25 1 32 -3 32 -19z m-1299 -228 c6 -18 38 -47 94 -85 47 -32 85 -62 85 -68
0 -6 25 -148 55 -317 30 -169 57 -339 61 -377 14 -158 -40 -312 -149 -419
-108 -107 -238 -156 -413 -156 -109 0 -192 23 -274 74 -30 19 -86 51 -124 71
-124 66 -206 161 -252 293 -24 69 -160 809 -151 819 3 3 78 17 167 33 l162 28
10 -27 c6 -17 40 -46 96 -82 l87 -55 59 -340 c32 -186 63 -349 67 -361 16 -44
115 -13 165 53 49 64 46 130 -26 533 -33 189 -59 346 -56 348 2 3 76 17 163
33 87 15 159 28 161 29 2 0 7 -11 13 -27z"/>
<path d="M3745 3162 c-92 -32 -164 -108 -195 -206 -20 -62 -9 -183 23 -249 24
-48 112 -145 122 -135 2 2 -3 24 -12 48 -10 28 -17 78 -17 130 -1 80 2 91 37
163 58 117 148 180 277 194 l62 6 -23 18 c-61 47 -187 61 -274 31z"/>
<path d="M4390 3177 c0 -4 11 -29 24 -56 59 -115 77 -305 42 -426 -41 -141
-149 -289 -264 -362 -116 -74 -291 -116 -410 -96 -34 5 -62 8 -62 6 0 -3 39
-23 87 -45 77 -36 98 -42 179 -46 285 -15 528 156 608 427 34 115 14 286 -46
409 -27 55 -156 210 -158 189z"/>
<path d="M3935 3056 c-92 -29 -158 -87 -199 -175 -30 -65 -29 -206 1 -273 19
-41 26 -48 60 -54 63 -13 120 -7 175 19 128 58 195 190 168 331 -27 144 -88
189 -205 152z"/>
<path d="M2923 3203 c17 -61 189 -1074 183 -1080 -3 -4 -53 -14 -109 -23
l-102 -16 72 -51 72 -50 108 20 c59 11 109 21 111 22 2 1 -40 246 -93 543 -52
296 -95 542 -95 545 0 4 -34 29 -76 58 -55 37 -75 46 -71 32z"/>
<path d="M2300 3034 c96 -107 424 -443 428 -440 2 2 -2 39 -9 82 l-13 77 -122
126 c-130 135 -122 130 -314 199 -8 3 5 -17 30 -44z"/>
<path d="M2275 2630 c23 -97 111 -627 105 -633 -4 -4 -49 -15 -101 -23 -52 -8
-98 -16 -102 -17 -5 -1 23 -25 63 -52 l71 -49 107 18 c59 10 109 20 111 22 3
3 -19 138 -47 302 l-52 297 -81 80 c-62 62 -79 74 -74 55z"/>
<path d="M1630 2972 c0 -9 25 -156 55 -326 72 -405 72 -502 -2 -638 -78 -142
-272 -237 -495 -241 -54 -1 -98 -3 -98 -5 0 -2 35 -20 78 -40 76 -36 79 -37
197 -37 137 1 198 15 291 70 107 63 189 179 215 303 17 85 7 194 -50 512 -28
157 -53 295 -56 307 -7 29 -135 120 -135 95z"/>
<path d="M948 2553 c30 -170 63 -332 74 -361 23 -61 71 -114 118 -131 31 -10
32 -10 26 12 -4 12 -33 173 -66 357 -33 184 -63 337 -68 341 -16 15 -126 89
-132 89 -3 0 18 -138 48 -307z"/>
</g>
</svg>
